<svg width="208" height="60" viewBox="0 0 208 60" fill="none" xmlns="http://www.w3.org/2000/svg">
<rect y="50" width="208" height="10" fill="url(#paint0_linear)"/>
<path d="M11.396 23V26.388H7.42V37H2.66V26.388H0.42V23H2.66V21.712C2.66 20.5173 2.912 19.556 3.416 18.828C3.93867 18.0813 4.62 17.54 5.46 17.204C6.31867 16.8493 7.24267 16.672 8.232 16.672C8.99733 16.672 9.66933 16.756 10.248 16.924C10.8267 17.0733 11.256 17.2507 11.536 17.456L11.06 20.424C10.8547 20.312 10.6213 20.2187 10.36 20.144C10.0987 20.0507 9.772 20.004 9.38 20.004C8.708 20.004 8.16667 20.1533 7.756 20.452C7.34533 20.7507 7.14 21.2733 7.14 22.02V23H11.396ZM19.997 37.28C17.6637 37.28 15.8157 36.6453 14.453 35.376C13.109 34.1067 12.437 32.3147 12.437 30C12.437 28.4693 12.745 27.1627 13.361 26.08C13.9957 24.9787 14.8544 24.148 15.937 23.588C17.0384 23.0093 18.317 22.72 19.773 22.72C21.2477 22.72 22.4984 23.0093 23.525 23.588C24.5704 24.148 25.3637 24.932 25.905 25.94C26.4464 26.9293 26.717 28.068 26.717 29.356C26.717 29.7107 26.6984 30.056 26.661 30.392C26.6424 30.7093 26.6237 30.98 26.605 31.204H17.057C17.1877 32.1747 17.505 32.8747 18.009 33.304C18.513 33.7147 19.1757 33.92 19.997 33.92C20.7064 33.92 21.2664 33.78 21.677 33.5C22.1064 33.22 22.4237 32.828 22.629 32.324L26.437 33.584C26.1757 34.3867 25.7184 35.068 25.065 35.628C24.4304 36.1693 23.665 36.58 22.769 36.86C21.8917 37.14 20.9677 37.28 19.997 37.28ZM19.773 26.052C18.261 26.052 17.365 26.92 17.085 28.656H22.209C22.0037 26.92 21.1917 26.052 19.773 26.052ZM35.2599 37.28C33.8599 37.28 32.5625 37.056 31.3679 36.608C30.1732 36.1413 29.1745 35.4787 28.3719 34.62L30.6119 31.988C31.0785 32.5853 31.6945 33.0893 32.4599 33.5C33.2439 33.892 34.1119 34.088 35.0639 34.088C35.6425 34.088 36.1185 34.004 36.4919 33.836C36.8652 33.668 37.0519 33.4067 37.0519 33.052C37.0519 32.8093 36.9585 32.604 36.7719 32.436C36.5852 32.268 36.2119 32.128 35.6519 32.016L33.6919 31.624C31.9372 31.2693 30.6865 30.7467 29.9399 30.056C29.2119 29.3467 28.8479 28.4227 28.8479 27.284C28.8479 26.5187 29.0812 25.7907 29.5479 25.1C30.0145 24.4093 30.7332 23.84 31.7039 23.392C32.6745 22.944 33.9159 22.72 35.4279 22.72C38.3212 22.72 40.4305 23.5227 41.7559 25.128L39.4879 27.704C39.0399 27.144 38.4612 26.7053 37.7519 26.388C37.0425 26.0707 36.3332 25.912 35.6239 25.912C34.2612 25.912 33.5799 26.2573 33.5799 26.948C33.5799 27.1907 33.6919 27.4053 33.9159 27.592C34.1585 27.7787 34.5972 27.928 35.2319 28.04L37.7799 28.544C39.2172 28.824 40.2532 29.3093 40.8879 30C41.5225 30.672 41.8399 31.4933 41.8399 32.464C41.8399 33.8267 41.2892 34.9747 40.1879 35.908C39.1052 36.8227 37.4625 37.28 35.2599 37.28ZM54.3336 23V26.388H50.1616V32.016C50.1616 32.688 50.3202 33.1733 50.6376 33.472C50.9736 33.752 51.4309 33.892 52.0096 33.892C52.4576 33.892 52.8402 33.8453 53.1576 33.752C53.4749 33.64 53.7736 33.4813 54.0536 33.276L54.5576 36.216C54.0909 36.5333 53.4936 36.7947 52.7656 37C52.0562 37.1867 51.3376 37.28 50.6096 37.28C49.0042 37.28 47.7349 36.944 46.8016 36.272C45.8869 35.5813 45.4202 34.424 45.4016 32.8V26.388H42.9936V23H45.4016V19.864L50.1616 18.548V23H54.3336ZM58.9122 21.376C57.9416 21.376 57.2322 21.1987 56.7842 20.844C56.3549 20.4707 56.1402 19.892 56.1402 19.108C56.1402 18.3053 56.3549 17.7267 56.7842 17.372C57.2322 16.9987 57.9416 16.812 58.9122 16.812C59.8642 16.812 60.5642 16.9987 61.0122 17.372C61.4602 17.7267 61.6842 18.3053 61.6842 19.108C61.6842 19.892 61.4602 20.4707 61.0122 20.844C60.5642 21.1987 59.8642 21.376 58.9122 21.376ZM61.2922 23V37H56.5322V23H61.2922ZM73.7807 23H78.7087L73.6687 37H67.9847L62.9447 23H67.9567L70.8407 33.668L73.7807 23ZM87.8872 28.124C87.8872 27.4707 87.7005 26.9573 87.3272 26.584C86.9725 26.192 86.4872 25.996 85.8712 25.996C85.2552 25.996 84.7232 26.1547 84.2752 26.472C83.8459 26.7707 83.5472 27.312 83.3792 28.096L79.3472 27.144C79.6085 25.8 80.2992 24.7267 81.4192 23.924C82.5392 23.1213 84.1165 22.72 86.1512 22.72C88.2045 22.72 89.7912 23.1773 90.9112 24.092C92.0499 24.988 92.6192 26.304 92.6192 28.04V33.164C92.6192 33.892 92.9459 34.256 93.5992 34.256C93.9352 34.256 94.2059 34.2187 94.4112 34.144L94.1312 36.86C93.5712 37.1213 92.8899 37.252 92.0872 37.252C91.2099 37.252 90.4539 37.084 89.8192 36.748C89.1845 36.3933 88.7552 35.8613 88.5312 35.152C88.1392 35.88 87.5139 36.4213 86.6552 36.776C85.8152 37.112 84.9192 37.28 83.9672 37.28C82.5299 37.28 81.3819 36.9533 80.5232 36.3C79.6832 35.628 79.2632 34.6667 79.2632 33.416C79.2632 32.408 79.5619 31.5773 80.1592 30.924C80.7752 30.252 81.7365 29.7853 83.0432 29.524L87.8872 28.516V28.124ZM83.9672 32.968C83.9672 33.3787 84.1165 33.6867 84.4152 33.892C84.7139 34.0973 85.0685 34.2 85.4792 34.2C86.1139 34.2 86.6739 34.0133 87.1592 33.64C87.6445 33.248 87.8872 32.6413 87.8872 31.82V31.036L85.6192 31.512C85.0592 31.624 84.6392 31.792 84.3592 32.016C84.0979 32.2213 83.9672 32.5387 83.9672 32.968ZM100.994 17.064V32.24C100.994 32.856 101.097 33.2947 101.302 33.556C101.507 33.8173 101.853 33.948 102.338 33.948C102.618 33.948 102.851 33.9293 103.038 33.892C103.225 33.8547 103.449 33.7987 103.71 33.724L103.402 36.58C103.066 36.7853 102.627 36.9533 102.086 37.084C101.545 37.2147 101.013 37.28 100.49 37.28C98.9967 37.28 97.914 36.9347 97.242 36.244C96.57 35.5533 96.234 34.424 96.234 32.856V17.064H100.994ZM115.138 23V26.388H111.162V37H106.402V26.388H104.162V23H106.402V21.712C106.402 20.5173 106.654 19.556 107.158 18.828C107.681 18.0813 108.362 17.54 109.202 17.204C110.061 16.8493 110.985 16.672 111.974 16.672C112.74 16.672 113.412 16.756 113.99 16.924C114.569 17.0733 114.998 17.2507 115.278 17.456L114.802 20.424C114.597 20.312 114.364 20.2187 114.102 20.144C113.841 20.0507 113.514 20.004 113.122 20.004C112.45 20.004 111.909 20.1533 111.498 20.452C111.088 20.7507 110.882 21.2733 110.882 22.02V23H115.138ZM123.739 37.28C121.406 37.28 119.558 36.6453 118.195 35.376C116.851 34.1067 116.179 32.3147 116.179 30C116.179 28.4693 116.487 27.1627 117.103 26.08C117.738 24.9787 118.597 24.148 119.679 23.588C120.781 23.0093 122.059 22.72 123.515 22.72C124.99 22.72 126.241 23.0093 127.267 23.588C128.313 24.148 129.106 24.932 129.647 25.94C130.189 26.9293 130.459 28.068 130.459 29.356C130.459 29.7107 130.441 30.056 130.403 30.392C130.385 30.7093 130.366 30.98 130.347 31.204H120.799C120.93 32.1747 121.247 32.8747 121.751 33.304C122.255 33.7147 122.918 33.92 123.739 33.92C124.449 33.92 125.009 33.78 125.419 33.5C125.849 33.22 126.166 32.828 126.371 32.324L130.179 33.584C129.918 34.3867 129.461 35.068 128.807 35.628C128.173 36.1693 127.407 36.58 126.511 36.86C125.634 37.14 124.71 37.28 123.739 37.28ZM123.515 26.052C122.003 26.052 121.107 26.92 120.827 28.656H125.951C125.746 26.92 124.934 26.052 123.515 26.052ZM139.002 37.28C137.602 37.28 136.305 37.056 135.11 36.608C133.915 36.1413 132.917 35.4787 132.114 34.62L134.354 31.988C134.821 32.5853 135.437 33.0893 136.202 33.5C136.986 33.892 137.854 34.088 138.806 34.088C139.385 34.088 139.861 34.004 140.234 33.836C140.607 33.668 140.794 33.4067 140.794 33.052C140.794 32.8093 140.701 32.604 140.514 32.436C140.327 32.268 139.954 32.128 139.394 32.016L137.434 31.624C135.679 31.2693 134.429 30.7467 133.682 30.056C132.954 29.3467 132.59 28.4227 132.59 27.284C132.59 26.5187 132.823 25.7907 133.29 25.1C133.757 24.4093 134.475 23.84 135.446 23.392C136.417 22.944 137.658 22.72 139.17 22.72C142.063 22.72 144.173 23.5227 145.498 25.128L143.23 27.704C142.782 27.144 142.203 26.7053 141.494 26.388C140.785 26.0707 140.075 25.912 139.366 25.912C138.003 25.912 137.322 26.2573 137.322 26.948C137.322 27.1907 137.434 27.4053 137.658 27.592C137.901 27.7787 138.339 27.928 138.974 28.04L141.522 28.544C142.959 28.824 143.995 29.3093 144.63 30C145.265 30.672 145.582 31.4933 145.582 32.464C145.582 33.8267 145.031 34.9747 143.93 35.908C142.847 36.8227 141.205 37.28 139.002 37.28ZM158.076 23V26.388H153.904V32.016C153.904 32.688 154.062 33.1733 154.38 33.472C154.716 33.752 155.173 33.892 155.752 33.892C156.2 33.892 156.582 33.8453 156.9 33.752C157.217 33.64 157.516 33.4813 157.796 33.276L158.3 36.216C157.833 36.5333 157.236 36.7947 156.508 37C155.798 37.1867 155.08 37.28 154.352 37.28C152.746 37.28 151.477 36.944 150.544 36.272C149.629 35.5813 149.162 34.424 149.144 32.8V26.388H146.736V23H149.144V19.864L153.904 18.548V23H158.076ZM162.654 21.376C161.684 21.376 160.974 21.1987 160.526 20.844C160.097 20.4707 159.882 19.892 159.882 19.108C159.882 18.3053 160.097 17.7267 160.526 17.372C160.974 16.9987 161.684 16.812 162.654 16.812C163.606 16.812 164.306 16.9987 164.754 17.372C165.202 17.7267 165.426 18.3053 165.426 19.108C165.426 19.892 165.202 20.4707 164.754 20.844C164.306 21.1987 163.606 21.376 162.654 21.376ZM165.034 23V37H160.274V23H165.034ZM177.523 23H182.451L177.411 37H171.727L166.687 23H171.699L174.583 33.668L177.523 23ZM191.629 28.124C191.629 27.4707 191.443 26.9573 191.069 26.584C190.715 26.192 190.229 25.996 189.613 25.996C188.997 25.996 188.465 26.1547 188.017 26.472C187.588 26.7707 187.289 27.312 187.121 28.096L183.089 27.144C183.351 25.8 184.041 24.7267 185.161 23.924C186.281 23.1213 187.859 22.72 189.893 22.72C191.947 22.72 193.533 23.1773 194.653 24.092C195.792 24.988 196.361 26.304 196.361 28.04V33.164C196.361 33.892 196.688 34.256 197.341 34.256C197.677 34.256 197.948 34.2187 198.153 34.144L197.873 36.86C197.313 37.1213 196.632 37.252 195.829 37.252C194.952 37.252 194.196 37.084 193.561 36.748C192.927 36.3933 192.497 35.8613 192.273 35.152C191.881 35.88 191.256 36.4213 190.397 36.776C189.557 37.112 188.661 37.28 187.709 37.28C186.272 37.28 185.124 36.9533 184.265 36.3C183.425 35.628 183.005 34.6667 183.005 33.416C183.005 32.408 183.304 31.5773 183.901 30.924C184.517 30.252 185.479 29.7853 186.785 29.524L191.629 28.516V28.124ZM187.709 32.968C187.709 33.3787 187.859 33.6867 188.157 33.892C188.456 34.0973 188.811 34.2 189.221 34.2C189.856 34.2 190.416 34.0133 190.901 33.64C191.387 33.248 191.629 32.6413 191.629 31.82V31.036L189.361 31.512C188.801 31.624 188.381 31.792 188.101 32.016C187.84 32.2213 187.709 32.5387 187.709 32.968ZM204.736 17.064V32.24C204.736 32.856 204.839 33.2947 205.044 33.556C205.25 33.8173 205.595 33.948 206.08 33.948C206.36 33.948 206.594 33.9293 206.78 33.892C206.967 33.8547 207.191 33.7987 207.452 33.724L207.144 36.58C206.808 36.7853 206.37 36.9533 205.828 37.084C205.287 37.2147 204.755 37.28 204.232 37.28C202.739 37.28 201.656 36.9347 200.984 36.244C200.312 35.5533 199.976 34.424 199.976 32.856V17.064H204.736Z" fill="white"/>
<defs>
<linearGradient id="paint0_linear" x1="0" y1="55" x2="204.986" y2="54.9999" gradientUnits="userSpaceOnUse">
<stop stop-color="#4255FF"/>
<stop offset="0.192244" stop-color="#FF6D4D"/>
<stop offset="0.317708" stop-color="#84FF9F"/>
<stop offset="0.338542" stop-color="#E4D290"/>
<stop offset="0.510417" stop-color="#FF5A36"/>
</linearGradient>
</defs>
</svg>
